<svg version="1.1" xmlns="http://www.w3.org/2000/svg" xmlns:xlink="http://www.w3.org/1999/xlink" width="58.75341" height="79.91721" viewBox="0,0,58.75341,79.91721"><g transform="translate(-216.0834,-142.95989)"><g data-paper-data="{&quot;isPaintingLayer&quot;:true}" fill-rule="nonzero" stroke="none" stroke-width="0.91817" stroke-linecap="butt" stroke-linejoin="miter" stroke-miterlimit="10" stroke-dasharray="" stroke-dashoffset="0" style="mix-blend-mode: normal"><path d="M221.5924,142.9962c0.9182,0 1.8363,0 2.7545,0c7.5263,0 7.7888,-0.0817 10.0999,0c11.0474,1.8556 27.0089,-2.0393 38.5632,1.8363c1.9621,11.6856 2.4616,13.4209 0.9181,16.5271c-7.7098,10.5544 -18.9942,20.7993 -25.7088,30.2997c5.4016,2.6057 14.2996,-4.6662 23.8725,-3.6727c1.0017,5.8304 -0.1405,14.384 0.9182,22.0361c-1.9851,2.0704 -3.1319,-0.7603 -6.4272,0c-0.6501,3.4045 1.5682,3.9408 0.9181,7.3453c-17.2845,1.6987 -35.1338,-0.0165 -46.8267,5.5091c-0.6124,0 -1.2239,0 -1.8363,0c-2.8913,-7.0543 -0.4426,-14.0866 -2.7545,-22.0361c9.7766,-10.7298 17.2597,-23.7522 27.5451,-33.9724c-9.9392,-1.2634 -18.065,3.8279 -26.627,0.9182c-0.7134,-7.7833 0.0551,-10.0843 -0.9181,-16.5271c0.6666,-2.0879 6.3546,0.8457 5.509,-2.7545c0,-1.8363 0,-3.6727 0,-5.509zM225.2651,147.587c-0.9797,2.6141 -0.9797,6.3979 0,10.0999c13.3557,1.5104 21.173,-3.4257 31.2178,0c-3.7039,11.905 -15.484,15.7338 -18.3634,28.4633c-6.0067,5.5201 -16.9688,14.1536 -11.9363,24.7906c15.5373,-0.0101 31.8845,-6.0957 43.1541,-4.5908c-1.2037,-5.554 2.4864,-9.2368 -0.9182,-14.6907c-9.2891,1.7344 -21.1491,5.7762 -28.4633,6.4271c5.2226,-17.751 29.9462,-23.9045 30.2997,-49.5812c-17.1524,-1.2313 -29.1336,-0.4343 -44.9904,-0.9182z" fill="#000000"></path><path d="M270.2555,148.5052c-0.3535,25.6767 -25.0771,31.8302 -30.2997,49.5812c7.3142,-0.6509 19.1742,-4.6927 28.4633,-6.4271c3.4046,5.4539 -0.2855,9.1367 0.9182,14.6907c-11.2696,-1.5049 -27.6168,4.5807 -43.1541,4.5908c-5.0325,-10.637 5.9296,-19.2705 11.9363,-24.7906c2.8794,-12.7295 14.6595,-16.5583 18.3634,-28.4633c-10.0448,-3.4257 -17.8621,1.5104 -31.2178,0c-0.9797,-3.702 -0.9797,-7.4858 0,-10.0999c15.8568,0.4839 27.838,-0.3131 44.9904,0.9182z" fill="#ff9400"></path></g></g></svg>