<svg version="1.1" xmlns="http://www.w3.org/2000/svg" xmlns:xlink="http://www.w3.org/1999/xlink" width="222" height="229.5" viewBox="0,0,222,229.5"><g transform="translate(-14,-49.71666)"><g data-paper-data="{&quot;isPaintingLayer&quot;:true}" fill-rule="nonzero" stroke-linejoin="miter" stroke-miterlimit="10" stroke-dasharray="" stroke-dashoffset="0" style="mix-blend-mode: normal"><path d="M14,279.21666v-14h188v14z" fill="#000000" stroke="#000000" stroke-width="0" stroke-linecap="butt"></path><path d="M99.5,272.71666v-223h13v223z" fill="#000000" stroke="none" stroke-width="0" stroke-linecap="butt"></path><path d="M100.5,58.71666v-9h117v9z" fill="#000000" stroke="none" stroke-width="0" stroke-linecap="butt"></path><path d="M205.5,89.71666v-36h12v36z" fill="#000000" stroke="none" stroke-width="0" stroke-linecap="butt"></path><path d="M234.5,111.21666c0,12.97869 -10.52131,23.5 -23.5,23.5c-12.97869,0 -23.5,-10.52131 -23.5,-23.5c0,-12.97869 10.52131,-23.5 23.5,-23.5c12.97869,0 23.5,10.52131 23.5,23.5z" fill="none" stroke="#000000" stroke-width="2" stroke-linecap="butt"></path><path d="M210.5,185.71666v-51h1v51z" fill="#000000" stroke="#000000" stroke-width="2" stroke-linecap="butt"></path><path d="M175.5,231.71666l35,-45l24,37" fill="none" stroke="#000000" stroke-width="3" stroke-linecap="round"></path></g></g></svg>